Coordinates
version=1
nRows=15
nColumns=34
inDegrees=yes

Units are S.I. units (second, meters, Newtons, ...)
If the header above contains a line with 'inDegrees', this indicates whether rotational values are in degrees (yes) or radians (no).

endheader
time	pelvis_tilt	pelvis_list	pelvis_rotation	pelvis_tx	pelvis_ty	pelvis_tz	hip_flexion_r	hip_adduction_r	hip_rotation_r	knee_angle_r	ankle_angle_r	subtalar_angle_r	mtp_angle_r	hip_flexion_l	hip_adduction_l	hip_rotation_l	knee_angle_l	ankle_angle_l	subtalar_angle_l	mtp_angle_l	lumbar_extension	lumbar_bending	lumbar_rotation	arm_flex_r	arm_add_r	arm_rot_r	elbow_flex_r	pro_sup_r	arm_flex_l	arm_add_l	arm_rot_l	elbow_flex_l	pro_sup_l
     23.10833330	     -4.67217898	    -10.21330736	    188.83548460	      1.83220026	      1.06647189	     -0.54255283	     27.02615962	     -9.35857897	     -7.80092826	      6.50529598	    -20.04612254	      9.49373538	      0.00000000	    -19.67942215	      8.78400254	      8.84227845	     56.63332586	    -17.32029109	    -30.92289660	      0.00000000	    -16.58915994	     -9.48501958	    -27.59943172	    -39.20454116	     -6.68714169	     -9.24297135	    116.35684536	     96.21627009	     10.28450137	    -29.02624725	     23.84753118	    113.06845886	     80.01550826
     23.11666670	     -4.82118044	     -9.96461385	    188.47436991	      1.83019225	      1.05987799	     -0.54164841	     26.71948133	     -8.90260343	     -6.88990646	      7.66027088	    -19.45057190	      7.89227533	      0.00000000	    -18.56142766	      8.79349287	      8.76235754	     61.41108960	    -17.69274862	    -31.90379625	      0.00000000	    -16.45499067	     -8.89806791	    -26.77429399	    -37.82641912	     -6.80404318	     -9.33961464	    116.28599697	     96.49097893	      8.72421793	    -29.10807233	     25.67654513	    116.15809465	     80.12359704
     23.12500000	     -4.92459407	     -9.55663594	    187.77541920	      1.82787401	      1.05051222	     -0.54086700	     26.63024449	     -8.19106706	     -6.10514457	      9.60360216	    -19.16539744	      5.99942078	      0.00000000	    -16.98088398	      8.75653748	      8.27856834	     67.31260769	    -17.84955226	    -32.51009381	      0.00000000	    -16.21989874	     -8.14236918	    -25.37623439	    -36.66451007	     -7.41340516	     -9.47610296	    116.30868788	     96.66215285	      7.09611905	    -28.84408115	     27.54441403	    118.64616166	     80.31113945
     23.13333330	     -4.91185506	     -9.42957883	    186.92252422	      1.82588137	      1.04382064	     -0.54017463	     26.73396815	     -7.60717610	     -5.07011393	     12.07596814	    -18.19347865	      3.67319290	      0.00000000	    -14.74900642	      9.07651261	      7.53007399	     73.63374621	    -18.50278544	    -31.77623914	      0.00000000	    -15.95356568	     -7.74933986	    -23.83717795	    -35.32772320	     -8.04293612	     -9.56128531	    116.48217091	     96.85293341	      5.29392124	    -28.66613666	     29.61097970	    120.61645873	     80.59449995
     23.14166670	     -4.73847877	     -9.23774426	    186.09929451	      1.82382866	      1.03540619	     -0.53968802	     27.09042495	     -6.96371261	     -3.75890883	     15.05582358	    -17.03800560	      0.47707783	      0.00000000	    -12.33701600	      9.24798325	      6.60950545	     79.58954370	    -18.26927206	    -32.13592336	      0.00000000	    -15.46866576	     -7.45997819	    -22.14422499	    -33.91545893	     -8.79701480	     -9.49475669	    116.56296203	     97.15236261	      3.59641603	    -28.40964562	     31.61759796	    122.18367074	     81.12476168
     23.15000000	     -4.50633124	     -8.63359414	    184.97583784	      1.82206663	      1.02577736	     -0.53954401	     27.90166890	     -5.75661339	     -2.72958259	     18.82618241	    -15.25262447	     -2.65550545	      0.00000000	     -9.78889742	      8.77725898	      5.20863591	     84.87107296	    -18.23044002	    -32.41965754	      0.00000000	    -15.09064829	     -6.69394380	    -20.10357316	    -32.26557371	     -9.94205773	     -9.49662503	    116.54368623	     97.41319635	      1.64889894	    -27.94829639	     33.48821280	    123.16979270	     81.78070869
     23.15833330	     -4.29601689	     -8.02838987	    183.65576132	      1.82114298	      1.01967749	     -0.53997731	     28.86190104	     -4.32079780	     -1.79300188	     22.87999627	    -13.58439837	     -5.86000431	      0.00000000	     -7.11320904	      8.14955404	      3.71560669	     90.57386919	    -18.25139082	    -32.22660102	      0.00000000	    -14.79390363	     -5.96055613	    -17.88332859	    -30.23136108	    -11.13053088	     -9.37788985	    116.29754959	     97.64587285	     -0.37674104	    -27.54096746	     35.18355586	    123.06763740	     82.53498703
     23.16666670	     -4.04069710	     -7.09935249	    182.60300214	      1.82059830	      1.01432437	     -0.54001183	     29.44541458	     -2.60768443	     -1.03670974	     26.58919882	    -10.36701307	     -8.56235851	      0.00000000	     -4.21836547	      7.09376073	      2.61279626	     95.25679590	    -18.06463935	    -30.69331902	      0.00000000	    -14.51542461	     -4.85762174	    -15.83550257	    -28.03350946	    -12.59092525	     -9.09934351	    115.76733957	     97.85175825	     -2.48039716	    -27.13595983	     36.71584386	    121.81438517	     83.38334601
     23.17500000	     -3.75632634	     -6.09700848	    181.83672297	      1.82065488	      1.01141344	     -0.53974473	     29.45390427	     -0.84693161	     -0.03915752	     29.55961549	     -5.83610968	    -10.67490911	      0.00000000	     -1.35047244	      5.92455380	      1.88357825	     98.70970071	    -18.05291385	    -28.97201125	      0.00000000	    -14.26805661	     -3.60219193	    -13.96631528	    -25.72639147	    -14.08905876	     -8.77147909	    114.81280555	     98.01017921	     -4.56923152	    -26.85519675	     37.99232452	    119.25057920	     84.20117988
     23.18333330	     -3.55962597	     -5.58722412	    181.11551212	      1.82149557	      1.00814870	     -0.54004757	     29.33496946	      0.41198426	      1.07747373	     32.69848435	     -2.31114395	    -12.87446546	      0.00000000	      1.54036868	      5.15218832	      1.45882371	    102.44455788	    -17.47437844	    -26.58565590	      0.00000000	    -14.38388736	     -2.93195797	    -12.26777047	    -23.25337513	    -15.35074709	     -8.23495599	    113.37150374	     98.15820272	     -6.48580449	    -26.93230958	     38.89416793	    116.27628308	     85.02612877
     23.19166670	     -3.21348294	     -5.08379528	    180.72133087	      1.82330554	      1.00495574	     -0.54010440	     29.18750936	      1.53396659	      1.93444365	     35.34217991	      0.34999015	    -14.88980903	      0.00000000	      4.88377087	      4.34542677	      1.45205386	    106.06171306	    -16.43264303	    -24.57413599	      0.00000000	    -14.74834425	     -2.27540344	    -11.51605352	    -19.95077336	    -16.83688081	     -6.81730388	    111.34029618	     98.41793393	     -9.09830065	    -27.20589248	     38.54868859	    113.07700605	     86.82668390
     23.20000000	     -3.72990538	     -5.06872289	    179.85348063	      1.82653179	      1.00492234	     -0.54065392	     27.97126551	      2.27881598	      3.14404943	     37.72058602	      2.29640118	    -16.41315779	      0.00000000	      7.49089613	      3.97260650	      1.05727427	    109.28387400	    -15.13613787	    -23.47366512	      0.00000000	    -16.59669489	     -2.07452471	     -9.43558067	    -17.08445928	    -17.36450972	     -6.66591215	    109.83127236	     98.47946211	    -10.22233864	    -27.34281300	     37.73941992	    108.22273531	     87.17155069
     23.20833330	     -3.43416874	     -5.00489635	    179.39434073	      1.83012578	      1.00298756	     -0.54099379	     27.20802698	      2.91407797	      4.24655376	     39.19041162	      3.96608378	    -17.90759650	      0.00000000	     11.33835005	      3.56766662	      1.08331404	    112.46131641	    -12.87810180	    -21.97867689	      0.00000000	    -17.56803820	     -2.04796518	    -10.68116327	    -10.99779069	    -19.30072445	     -1.69196660	    105.81604231	     99.28775188	    -15.16401373	    -26.59111345	     31.14144765	    104.02017592	     90.88747286
     23.21666670	     -3.48895777	     -4.20996683	    178.64314292	      1.83386978	      0.99959771	     -0.54098870	     26.26575252	      4.23927070	      4.90890371	     40.84889498	      6.18104764	    -18.55512767	      0.00000000	     14.85044602	      2.32074055	      1.19940852	    115.57955504	     -9.60739340	    -20.52586894	      0.00000000	    -19.33670350	     -0.96015103	     -8.62544701	     -7.88107492	    -20.18908281	     -1.31930365	    104.62457103	     99.39245535	    -16.20584171	    -26.02413208	     27.51057677	     98.88933820	     92.22434078
     23.22500000	     -3.57983930	     -3.37697730	    177.66587000	      1.83693323	      0.99665764	     -0.54112365	     24.97706359	      5.50520744	      5.46226092	     42.12975999	      7.25712760	    -19.67791877	      0.00000000	     18.29334302	      0.93249356	      1.20935696	    117.67577848	     -6.27074948	    -18.07920687	      0.00000000	    -20.86825817	     -0.15784383	     -7.58864030	     -3.15291932	    -21.35476422	      1.44803073	    102.42322110	     99.73515586	    -18.81714801	    -24.34040368	     20.55297964	     95.74074193	     94.65433636
